<?xml version="1.0" standalone="no"?>
<!DOCTYPE svg PUBLIC "-//W3C//DTD SVG 20010904//EN"
 "http://www.w3.org/TR/2001/REC-SVG-20010904/DTD/svg10.dtd">
<svg version="1.0" xmlns="http://www.w3.org/2000/svg"
 width="700.000000pt" height="700.000000pt" viewBox="0 0 700.000000 700.000000"
 preserveAspectRatio="xMidYMid meet">
<metadata>
Created by potrace 1.11, written by Peter Selinger 2001-2013
</metadata>
<g transform="translate(0.000000,700.000000) scale(0.100000,-0.100000)"
fill="#000000" stroke="none">
<path d="M2417 6095 c-1 -2 -49 -5 -107 -9 -58 -3 -116 -8 -130 -10 -14 -2
-47 -7 -75 -10 -123 -14 -419 -89 -500 -126 -11 -5 -45 -19 -75 -30 -90 -35
-278 -132 -385 -199 -222 -140 -431 -328 -596 -536 -65 -82 -189 -267 -189
-283 0 -6 -4 -12 -8 -14 -10 -4 -110 -208 -147 -298 -69 -169 -137 -413 -165
-595 -6 -38 -13 -81 -15 -94 -26 -149 -26 -727 0 -821 2 -8 7 -35 10 -60 46
-353 185 -742 368 -1032 130 -206 319 -421 485 -552 380 -300 868 -480 1397
-513 178 -11 528 -4 610 12 11 2 40 7 65 10 305 36 644 147 887 291 41 24 77
44 79 44 21 0 217 163 311 258 l116 116 99 -269 c55 -149 109 -294 120 -323
l20 -52 277 0 276 0 27 73 c15 39 88 239 163 442 75 204 140 379 145 390 5 11
44 115 86 230 42 116 91 248 109 295 18 47 47 126 65 175 18 50 36 99 41 110
9 21 49 129 105 285 19 52 38 104 43 115 5 11 21 54 36 95 53 145 215 585 224
605 5 11 30 79 56 150 26 72 58 157 70 190 13 33 64 171 114 306 50 136 95
257 100 270 6 13 42 112 82 219 39 107 84 229 99 270 49 129 217 581 254 683
l35 97 -252 0 -252 0 -18 -52 c-10 -29 -36 -102 -58 -163 -22 -60 -53 -146
-69 -190 -15 -44 -53 -147 -83 -230 -30 -82 -92 -253 -137 -380 -45 -126 -99
-277 -120 -335 -21 -58 -61 -168 -88 -245 -28 -77 -101 -279 -162 -450 -62
-170 -116 -323 -122 -340 -5 -16 -14 -39 -18 -50 -5 -11 -52 -141 -105 -290
-53 -148 -104 -292 -115 -320 -10 -27 -33 -90 -51 -140 -17 -49 -37 -106 -44
-125 -22 -59 -244 -677 -290 -805 -109 -304 -126 -350 -134 -358 -4 -4 -15 11
-24 35 -8 24 -46 126 -82 228 -37 102 -77 212 -90 245 -13 33 -25 69 -27 80
-2 13 -19 -13 -50 -78 -26 -53 -68 -127 -94 -164 -118 -170 -158 -223 -164
-216 -4 5 -57 147 -119 316 -62 169 -136 369 -164 445 l-52 137 -189 0 -188 0
-10 -25 c-57 -155 -193 -304 -393 -432 -227 -145 -483 -199 -820 -175 -78 5
-113 10 -220 31 -50 10 -115 29 -175 53 -246 96 -412 250 -520 478 -46 99 -92
254 -115 390 -12 72 -14 91 -21 173 -3 48 -8 90 -10 94 -2 4 1 10 8 15 7 4
556 8 1220 8 l1207 1 20 -51 c11 -27 62 -165 114 -305 l94 -255 236 0 c251 -1
248 -1 227 47 -9 23 -69 188 -140 388 -21 58 -44 121 -53 141 l-15 36 -218 -1
c-121 -1 -230 1 -243 4 -26 6 -21 -4 -145 330 -348 946 -524 1424 -561 1520
-24 63 -67 178 -95 255 -28 77 -76 208 -107 290 -30 83 -71 193 -90 245 -19
52 -43 116 -53 143 l-19 47 247 1 247 0 -125 29 c-69 16 -150 32 -180 36 -30
3 -58 8 -61 10 -14 8 -443 26 -452 19z"/>
<path d="M3250 5996 c0 -5 86 -246 125 -351 19 -49 136 -371 260 -715 125
-344 254 -699 287 -790 33 -91 95 -262 138 -380 43 -118 99 -273 126 -345 26
-71 56 -155 66 -185 10 -29 22 -56 27 -60 7 -4 582 -5 627 -1 11 1 16 64 16
234 1 88 -11 346 -17 376 -1 9 -6 45 -10 81 -4 36 -9 74 -11 85 -2 11 -6 36
-9 55 -2 19 -11 67 -19 105 -175 825 -615 1438 -1261 1756 -103 50 -345 145
-345 135z"/>
<path d="M4500 2548 c0 -7 3 -14 33 -93 9 -22 37 -98 62 -170 26 -71 50 -133
54 -138 10 -10 103 187 144 308 l34 100 -163 0 c-90 0 -164 -3 -164 -7z"/>
</g>
</svg>
